<svg width="183" height="513" viewBox="0 0 183 513" fill="none" xmlns="http://www.w3.org/2000/svg">
<path d="M98.9482 83.3602C98.9482 83.3602 109.969 81.5853 116.381 86.7036C122.792 91.8357 125.668 98.2336 126.466 105.292C127.264 112.337 132.355 139.579 132.355 139.579L142.316 126.123L153.296 135.768C153.296 135.768 144.023 180.209 135.327 183.209C126.617 186.208 117.165 176.426 114.922 174.665C112.68 172.903 98.9482 83.3602 98.9482 83.3602Z" fill="#007AFF"/>
<path d="M102.677 83.0713C102.677 83.0713 117.138 103.71 118.816 108.979C120.495 114.249 132.699 123.784 132.465 136.277C132.327 143.418 131.571 149.431 130.938 153.283C130.415 156.475 130.47 159.75 131.13 162.915L136.785 190.144C136.785 190.144 133.194 196.363 124.333 197.326C115.473 198.289 92.8942 203.614 77.8832 197.326L67.1099 192.056V149.926L59.68 132.686L38.5463 98.44C38.5463 98.44 49.3334 90.9689 59.4049 87.7356C69.9856 84.3509 87.1017 84.0482 102.677 83.0713Z" fill="#007AFF"/>
<path d="M135.657 184.723C135.685 184.723 135.63 184.392 135.533 183.773C135.409 183.085 135.244 182.191 135.038 181.063C134.556 178.641 133.896 175.27 133.084 171.129C132.726 169.024 132.038 166.781 131.694 164.304C131.598 163.685 131.502 163.066 131.406 162.419C131.35 161.773 131.295 161.126 131.24 160.465C131.089 159.145 131.144 157.782 131.144 156.379C131.24 153.586 131.777 150.683 132.603 147.738C133.387 144.794 134.419 141.657 134.212 138.314C134.075 134.984 133.043 131.874 131.846 129.04C130.635 126.192 129.163 123.591 127.677 121.184C124.691 116.368 121.664 112.282 119.174 108.801C116.711 105.388 114.702 102.595 113.257 100.6C112.583 99.6784 112.06 98.9354 111.648 98.3713C111.276 97.8622 111.07 97.6008 111.056 97.6145C111.042 97.6283 111.207 97.9172 111.538 98.4401C111.923 99.0179 112.418 99.7885 113.037 100.738C114.358 102.719 116.326 105.567 118.789 109.062C121.224 112.571 124.21 116.684 127.154 121.486C128.612 123.894 130.043 126.481 131.24 129.288C132.424 132.094 133.414 135.135 133.552 138.327C133.745 141.547 132.754 144.588 131.97 147.56C131.144 150.531 130.608 153.503 130.525 156.352C130.539 157.769 130.497 159.172 130.663 160.507C130.731 161.181 130.786 161.841 130.855 162.488C130.965 163.135 131.062 163.768 131.172 164.387C131.543 166.891 132.259 169.134 132.644 171.225C133.538 175.339 134.281 178.696 134.804 181.104C135.065 182.218 135.272 183.113 135.423 183.787C135.547 184.406 135.63 184.723 135.657 184.723Z" fill="#263238"/>
<path d="M45.6184 94.0648C45.6184 94.0648 19.27 103.49 29.2728 136.346C37.2392 162.502 53.5987 193.721 63.9592 194.354C69.3389 194.67 75.2002 194.478 78.8464 191.588C93.6648 179.921 102.677 148.619 102.677 148.619L88.5051 132.783L71.3339 158.237C69.4077 157.411 57.974 122.174 57.974 122.174C57.974 122.174 49.7599 95.1655 45.6184 94.0648Z" fill="#007AFF"/>
<path d="M58.1391 125.119C58.1253 125.119 58.1804 125.339 58.318 125.752C58.4831 126.206 58.6895 126.811 58.9509 127.554C59.5426 129.178 60.3818 131.475 61.4275 134.365C63.6152 140.267 66.711 148.605 70.3984 158.553L70.6047 159.117L70.9487 158.608C76.0257 151.123 81.9008 142.441 88.1612 133.182L87.6109 133.237C88.1612 133.801 88.7528 134.406 89.3582 135.025C93.9262 139.69 98.329 144.189 102.429 148.385L102.347 148.041C100.173 154.962 98.0126 161.346 95.4947 166.85C93.0456 172.381 90.3764 177.031 87.8723 180.691C85.4094 184.392 83.0154 187.02 81.4331 188.85C80.6213 189.69 79.9746 190.364 79.493 190.859C79.0527 191.313 78.8326 191.561 78.8464 191.588C78.8602 191.602 79.1078 191.382 79.5756 190.955C80.0709 190.474 80.7451 189.841 81.5982 189.029C83.2493 187.24 85.6983 184.64 88.2299 180.953C90.7891 177.293 93.541 172.642 96.0313 167.111C98.5905 161.594 100.806 155.182 102.993 148.275L103.062 148.082L102.911 147.931C98.8244 143.735 94.4078 139.222 89.8536 134.557C89.2619 133.952 88.6565 133.333 88.1062 132.769L87.8034 132.452L87.5558 132.81C81.323 142.084 75.4755 150.779 70.4259 158.278L70.9762 158.347C67.1788 148.426 64.0142 140.13 61.7577 134.241C60.6432 131.379 59.7489 129.109 59.116 127.485C58.8133 126.742 58.5794 126.164 58.4005 125.71C58.2492 125.325 58.1529 125.119 58.1391 125.119Z" fill="#263238"/>
<path d="M122.241 470.166L120.48 496.941C120.48 496.941 147.104 507.714 147.255 512.695L95.2325 511.154L96.2507 469.327L122.241 470.166Z" fill="#007AFF"/>
<path d="M104.466 494.217C103.447 494.465 102.718 495.579 102.925 496.597C103.131 497.615 104.259 498.372 105.277 498.152C106.295 497.918 107.217 496.611 106.901 495.62C106.584 494.63 105.222 493.818 104.287 494.286" fill="#E0E0E0"/>
<path d="M95.1508 512.998L95.2609 508.196L145.288 509.998C145.288 509.998 147.572 511.071 147.27 512.695L95.1508 512.998Z" fill="#263238"/>
<path d="M121.334 496.707C121.32 496.955 120.041 497.037 118.775 497.821C117.481 498.564 116.807 499.651 116.573 499.541C116.34 499.486 116.766 497.973 118.321 497.065C119.862 496.115 121.389 496.473 121.334 496.707Z" fill="#263238"/>
<path d="M126.728 499.115C126.783 499.363 125.668 499.762 124.774 500.807C123.852 501.825 123.59 502.981 123.343 502.967C123.109 502.995 122.971 501.509 124.113 500.229C125.228 498.936 126.728 498.881 126.728 499.115Z" fill="#263238"/>
<path d="M129.631 505.747C129.397 505.788 129.08 504.508 129.782 503.146C130.47 501.77 131.681 501.261 131.777 501.468C131.915 501.674 131.117 502.403 130.566 503.545C129.988 504.66 129.878 505.719 129.631 505.747Z" fill="#263238"/>
<path d="M121.059 490.557C120.949 490.791 119.793 490.405 118.349 490.46C116.904 490.488 115.776 490.942 115.652 490.708C115.514 490.515 116.629 489.607 118.321 489.566C120.013 489.511 121.183 490.364 121.059 490.557Z" fill="#263238"/>
<path d="M74.3044 470.689L72.7772 497.478C72.7772 497.478 99.4833 508.031 99.6897 512.998L47.6533 511.897L48.3138 470.07L74.3044 470.689Z" fill="#007AFF"/>
<path d="M56.7357 494.877C55.7175 495.125 55.002 496.253 55.2084 497.271C55.4148 498.29 56.5568 499.033 57.575 498.799C58.5931 498.565 59.5012 497.244 59.171 496.253C58.8407 495.263 57.4649 494.465 56.543 494.932" fill="#E0E0E0"/>
<path d="M47.586 512.998L47.641 508.939L97.6824 510.315C97.6824 510.315 99.9801 511.374 99.6774 512.998H47.586Z" fill="#263238"/>
<path d="M73.6178 497.23C73.6041 497.478 72.3245 497.574 71.0587 498.358C69.7653 499.115 69.1049 500.202 68.871 500.092C68.6371 500.037 69.0498 498.523 70.6046 497.601C72.1594 496.666 73.6866 496.996 73.6178 497.23Z" fill="#263238"/>
<path d="M79.0389 499.597C79.0939 499.844 77.9795 500.257 77.0989 501.303C76.177 502.335 75.9431 503.49 75.6817 503.477C75.4478 503.518 75.2965 502.018 76.4247 500.725C77.5392 499.431 79.0389 499.363 79.0389 499.597Z" fill="#263238"/>
<path d="M81.9972 506.201C81.7633 506.256 81.4331 504.976 82.121 503.6C82.7952 502.211 84.0059 501.688 84.1023 501.908C84.2398 502.114 83.4556 502.857 82.9052 503.985C82.3411 505.1 82.2448 506.173 81.9972 506.201Z" fill="#263238"/>
<path d="M73.2877 491.08C73.1776 491.314 72.0219 490.929 70.5772 490.997C69.1326 491.039 68.0043 491.493 67.8805 491.273C67.7429 491.08 68.8436 490.172 70.5497 490.117C72.242 490.048 73.4253 490.887 73.2877 491.08Z" fill="#263238"/>
<path d="M66.3533 191.162C66.3533 191.162 53.1035 205.072 46.1414 222.202C39.1794 239.332 42.2476 321.762 42.2476 321.762L43.7061 364.979C43.7061 364.979 41.6147 402.128 43.2108 428.614C44.8206 455.086 46.623 484.448 46.623 484.448L75.5168 485.838L106.186 261.237L98.508 364.814C93.6236 391.231 94.2015 437.833 95.1508 485.796L125.765 485.824C125.765 485.824 136.304 414.126 138.712 397.106C141.422 377.857 149.43 324.927 149.43 324.927C149.43 324.927 155.594 274.266 153.461 246.982C151.315 219.698 135.052 181.545 134.529 179.935L69.1739 191.712" fill="#263238"/>
<path d="M63.0238 183.898L55.36 204.289C55.36 204.289 -1.61584 283.788 0.0352325 290.406C1.68631 297.024 32.7403 322.698 41.8487 318.557C50.9572 314.415 74.5538 297.437 82.4239 280.472C90.294 263.493 112.652 215.887 112.652 215.887L119.697 202.638L111.827 197.258L63.0238 183.898Z" fill="#455A64"/>
<path d="M135.024 181.063C128.117 184.764 128.86 196.349 121.953 200.05C133.47 216.176 137.418 236.498 138.987 256.256C140.555 276.014 140.074 296.033 144.036 315.461C152.429 314.869 149.939 315.048 158.346 314.456C160.781 276.33 156.626 237.805 146.155 201.069C144.023 193.625 140.253 186.773 135.024 181.063Z" fill="#455A64"/>
<path d="M79.2868 214.511C79.2593 214.594 77.8696 214.319 75.682 213.686C73.4943 213.053 70.4949 212.021 67.289 210.645C64.0832 209.269 61.2764 207.797 59.3089 206.641C57.3413 205.486 56.1856 204.674 56.2269 204.591C56.2819 204.495 57.5202 205.169 59.5427 206.201C61.5653 207.233 64.3859 208.623 67.5642 209.985C70.7426 211.347 73.687 212.448 75.8334 213.19C77.9798 213.961 79.3143 214.415 79.2868 214.511Z" fill="#263238"/>
<g opacity="0.2">
<g opacity="0.2">
<g opacity="0.2">
<path opacity="0.2" d="M42.3303 275.037L40.9544 275.133C50.3793 284.861 66.1471 287.75 78.4063 282.013C82.5891 280.059 86.7305 276.427 86.5516 271.818C72.4487 276.812 57.0111 277.94 42.3303 275.037Z" fill="black"/>
</g>
</g>
</g>
<path d="M113.492 202.693C108.167 201.716 97.944 204.509 94.2016 208.416C90.4591 212.324 88.2164 217.415 86.3727 222.505C82.3689 233.54 79.5346 245.758 70.8527 253.669C62.6936 261.113 51.0947 263.094 40.1839 264.773C39.8812 268.804 39.9363 273.606 43.2522 275.918C44.2291 276.606 45.3985 276.963 46.5405 277.28C49.7876 278.174 53.1036 278.766 56.4607 279.041C71.9946 280.321 88.4503 274.06 97.5725 261.416C109.103 245.428 110.024 226.207 116.546 207.604" fill="#455A64"/>
<path d="M116.546 207.618C116.56 207.618 116.505 207.825 116.395 208.21C116.271 208.623 116.092 209.187 115.872 209.916C115.39 211.402 114.744 213.617 113.973 216.493C113.189 219.355 112.336 222.891 111.331 227.005C110.327 231.105 109.213 235.797 107.644 240.888C106.075 245.965 104.025 251.496 100.847 256.917C99.2923 259.641 97.4485 262.338 95.2058 264.842C92.9631 267.346 90.3489 269.63 87.4045 271.598C81.5019 275.519 74.3611 278.188 66.7248 279.151C62.8999 279.646 58.9648 279.66 55.0022 279.261C53.0209 279.041 51.0534 278.725 49.0858 278.284C48.0952 278.064 47.1183 277.817 46.1414 277.541C45.1645 277.266 44.1601 276.922 43.2521 276.344C42.3302 275.725 41.5459 274.886 41.023 273.923C40.5002 272.96 40.1837 271.914 40.0049 270.882C39.6334 268.791 39.716 266.727 39.8536 264.759L39.8673 264.484L40.1425 264.443C47.4348 263.315 54.5756 262.104 60.9323 259.448C64.0969 258.114 67.055 256.463 69.5729 254.344C72.1045 252.252 74.1959 249.776 75.9158 247.148C79.3418 241.878 81.3506 236.182 83.1805 230.926C85.0104 225.656 86.5652 220.676 88.6291 216.397C89.6472 214.25 90.8168 212.296 92.0964 210.59C92.743 209.737 93.4172 208.953 94.1189 208.224C94.8481 207.508 95.6324 206.917 96.4442 206.435C99.6913 204.509 102.842 203.614 105.401 203.064C107.974 202.514 110.024 202.404 111.4 202.459C112.776 202.514 113.478 202.72 113.478 202.72C113.464 202.761 112.762 202.61 111.4 202.596C110.038 202.596 108.002 202.734 105.456 203.326C102.925 203.917 99.8014 204.839 96.6368 206.765C95.8526 207.247 95.0958 207.838 94.3941 208.513C93.7061 209.228 93.0457 210.012 92.4266 210.852C91.1745 212.544 90.0462 214.484 89.0418 216.603C87.0193 220.854 85.5058 225.821 83.7034 231.119C81.8872 236.388 79.9059 242.126 76.4387 247.492C74.705 250.161 72.5724 252.693 69.9857 254.839C67.4128 257.013 64.3995 258.705 61.1799 260.068C54.727 262.778 47.5311 264.003 40.2251 265.131L40.5277 264.814C40.3901 266.754 40.3214 268.777 40.6654 270.758C40.9956 272.726 41.9036 274.68 43.6097 275.753C45.247 276.757 47.2971 277.115 49.2096 277.596C51.1496 278.037 53.1034 278.353 55.0572 278.56C58.9647 278.959 62.8448 278.931 66.6147 278.45C74.1547 277.514 81.1993 274.886 87.0193 271.033C89.9225 269.107 92.5091 266.851 94.7243 264.402C96.9257 261.952 98.7694 259.283 100.324 256.586C103.489 251.22 105.553 245.744 107.149 240.695C108.745 235.632 109.9 230.967 110.932 226.867C111.964 222.767 112.859 219.245 113.684 216.383C114.496 213.521 115.184 211.32 115.72 209.834C115.968 209.118 116.175 208.568 116.312 208.155C116.45 207.797 116.532 207.618 116.546 207.618Z" fill="#263238"/>
<path d="M52.3466 278.298C52.1265 278.229 53.8326 274.858 53.3372 270.428C52.9245 265.984 50.5579 263.039 50.7506 262.929C50.8056 262.874 51.4798 263.521 52.2503 264.814C53.0208 266.094 53.7913 268.061 54.039 270.359C54.2729 272.643 53.9151 274.734 53.4336 276.151C52.952 277.569 52.4154 278.339 52.3466 278.298Z" fill="#263238"/>
<path d="M52.732 268.378C52.7457 268.57 50.0215 268.914 46.6505 269.134C43.2796 269.355 40.5278 269.382 40.514 269.189C40.5003 268.997 43.2245 268.653 46.6092 268.433C49.9802 268.213 52.732 268.185 52.732 268.378Z" fill="#263238"/>
<path d="M53.8877 272.822C53.8877 273.014 51.0533 273.235 47.5585 273.303C44.0638 273.372 41.2157 273.276 41.2157 273.083C41.2157 272.891 44.0501 272.67 47.5448 272.602C51.0396 272.533 53.8877 272.629 53.8877 272.822Z" fill="#263238"/>
<path d="M126.59 206.146C136.125 214.759 139.702 228.408 139.344 241.259C139.001 254.11 135.258 266.575 132.396 279.11C129.521 291.644 127.512 304.784 130.594 317.263C126.521 317.841 122.435 318.433 118.362 319.011C108.373 308.444 103.296 293.419 104.81 278.945C106.062 266.96 111.51 255.898 115.404 244.506C119.311 233.113 121.623 220.263 116.697 209.255" fill="#455A64"/>
<path d="M116.697 209.271C116.711 209.271 116.794 209.45 116.945 209.808C117.11 210.193 117.33 210.73 117.619 211.418C118.115 212.862 118.83 215.022 119.257 217.912C119.683 220.801 119.793 224.392 119.367 228.534C118.94 232.661 117.936 237.312 116.381 242.306C114.812 247.301 112.68 252.626 110.547 258.391C108.442 264.156 106.282 270.416 105.333 277.268C104.383 284.092 104.892 291.495 107.08 298.704C109.254 305.9 113.12 312.931 118.61 318.779L118.307 318.669C120.206 318.393 122.256 318.104 124.32 317.802C126.453 317.499 128.571 317.196 130.539 316.907L130.25 317.348C128.31 309.436 128.42 301.401 129.342 293.889C130.264 286.349 131.997 279.235 133.635 272.494C135.286 265.765 136.854 259.381 137.845 253.327C138.849 247.287 139.276 241.577 139.042 236.39C138.56 225.974 135.368 217.926 132.245 213.096C130.732 210.633 129.204 208.968 128.2 207.826C127.677 207.304 127.278 206.891 126.989 206.602C126.714 206.327 126.576 206.175 126.59 206.162C126.604 206.148 126.755 206.285 127.03 206.547C127.333 206.836 127.76 207.235 128.296 207.73C129.328 208.845 130.897 210.496 132.465 212.959C135.671 217.788 138.973 225.878 139.524 236.376C139.799 241.605 139.386 247.356 138.409 253.437C137.432 259.519 135.891 265.93 134.254 272.659C132.63 279.387 130.924 286.486 130.03 293.985C129.122 301.456 129.025 309.395 130.938 317.196L131.034 317.582L130.649 317.637C128.681 317.926 126.563 318.228 124.43 318.531C122.366 318.82 120.33 319.123 118.417 319.398L118.238 319.425L118.115 319.288C112.542 313.358 108.635 306.231 106.447 298.925C104.232 291.619 103.75 284.12 104.727 277.199C105.69 270.265 107.905 263.977 110.038 258.212C112.198 252.447 114.358 247.136 115.941 242.169C117.523 237.202 118.555 232.593 119.009 228.492C119.463 224.392 119.394 220.829 119.009 217.953C118.637 215.077 117.963 212.917 117.509 211.473C117.248 210.785 117.041 210.248 116.904 209.849C116.752 209.477 116.697 209.271 116.697 209.271Z" fill="#263238"/>
<path d="M128.599 307.426C128.572 307.646 124.733 306.93 120.055 307.577C115.363 308.182 111.868 309.889 111.772 309.682C111.731 309.6 112.556 309.077 114.015 308.458C115.459 307.838 117.564 307.192 119.958 306.875C122.353 306.559 124.554 306.628 126.109 306.848C127.677 307.04 128.613 307.329 128.599 307.426Z" fill="#263238"/>
<path d="M121.472 318.694C121.293 318.777 120.013 316.617 118.596 313.851C117.179 311.085 116.188 308.774 116.353 308.691C116.532 308.609 117.812 310.769 119.229 313.535C120.646 316.3 121.651 318.612 121.472 318.694Z" fill="#263238"/>
<path d="M127.87 317.786C127.691 317.869 126.508 315.53 125.228 312.585C123.948 309.627 123.054 307.178 123.233 307.095C123.412 307.013 124.595 309.352 125.875 312.296C127.154 315.254 128.049 317.717 127.87 317.786Z" fill="#263238"/>
<path d="M110.313 202.156C110.231 202.183 110.024 201.894 109.928 201.33C109.832 200.78 109.873 199.982 110.217 199.184C110.561 198.386 111.111 197.808 111.579 197.505C112.047 197.202 112.405 197.147 112.446 197.23C112.542 197.409 111.442 198.083 110.864 199.473C110.245 200.835 110.506 202.1 110.313 202.156Z" fill="#263238"/>
<path d="M126.218 199.17C124.567 196.57 120.66 195.703 117.605 195.331C113.863 195.001 110.244 198.193 109.886 201.936C109.529 205.678 112.281 209.407 115.899 210.384C119.531 211.36 123.645 209.654 125.723 206.517C127.154 204.357 127.608 201.371 126.218 199.17Z" fill="#455A64"/>
<path d="M119.353 196.776C119.394 196.721 120.22 197.299 120.977 198.702C121.733 200.064 122.325 202.348 121.692 204.729C121.045 207.123 119.394 208.801 118.046 209.599C116.684 210.425 115.679 210.521 115.679 210.452C115.638 210.342 116.56 210.067 117.771 209.187C118.968 208.333 120.412 206.724 121.004 204.55C121.582 202.376 121.128 200.257 120.522 198.922C119.931 197.56 119.27 196.858 119.353 196.776Z" fill="#263238"/>
<path d="M125.448 198.193C125.517 198.138 125.985 198.565 126.439 199.473C126.893 200.367 127.237 201.784 127.072 203.325C126.907 204.88 126.274 206.187 125.641 206.972C125.008 207.77 124.457 208.086 124.416 208.017C124.334 207.935 124.746 207.494 125.228 206.683C125.71 205.885 126.219 204.674 126.37 203.257C126.521 201.839 126.287 200.546 125.971 199.666C125.668 198.771 125.352 198.262 125.448 198.193Z" fill="#263238"/>
<g opacity="0.2">
<g opacity="0.2">
<g opacity="0.2">
<path opacity="0.2" d="M126.384 206.132C123.962 208.939 120.784 210.136 117.083 210.37C117.798 212.035 120.082 213.576 121.885 213.7C123.687 213.81 125.517 212.846 126.439 211.292C127.388 209.737 127.361 207.659 126.384 206.132Z" fill="black"/>
</g>
</g>
</g>
<g opacity="0.2">
<g opacity="0.2">
<g opacity="0.2">
<path opacity="0.2" d="M82.8505 218.116C81.5984 216.562 79.6171 215.819 77.7459 215.145C70.66 212.585 63.0101 208.21 55.9242 205.651C62.3909 211.388 69.3942 218.144 76.8103 222.588C78.599 223.661 80.938 224.679 82.6441 223.469C84.2676 222.299 84.1163 219.671 82.8505 218.116Z" fill="black"/>
</g>
</g>
</g>
<g opacity="0.2">
<g opacity="0.2">
<g opacity="0.2">
<path opacity="0.2" d="M141.56 230.857C140.459 222.34 136.524 213.947 129.658 208.801C133.346 215.529 137.088 222.368 138.739 229.852C140.555 238.08 139.221 243.35 138.395 251.729L139.193 255.871C141.491 247.615 142.66 239.374 141.56 230.857Z" fill="black"/>
</g>
</g>
</g>
<path d="M79.0255 224.005C78.998 224.047 78.6127 223.854 77.9248 223.469C77.2368 223.083 76.2737 222.492 75.0904 221.721C72.7376 220.18 69.5868 217.896 66.3397 215.089C63.0926 212.283 60.3683 209.503 58.4971 207.398C57.5615 206.352 56.8323 205.472 56.3507 204.853C55.8691 204.234 55.6215 203.876 55.6628 203.848C55.7453 203.78 56.9149 205.059 58.8686 207.068C60.8224 209.077 63.5742 211.773 66.8076 214.567C70.0409 217.346 73.1091 219.685 75.3794 221.322C77.6496 222.946 79.0806 223.909 79.0255 224.005Z" fill="#263238"/>
<path d="M114.028 18.1292C116.092 14.4556 114.812 9.5161 111.772 6.61296C108.731 3.69606 104.314 2.58158 100.104 2.70541C95.8937 2.82924 91.8073 4.04003 87.7622 5.25081C84.7489 1.32951 79.4655 -0.693052 74.5948 0.215039C69.7379 1.13689 65.5414 4.94812 64.1793 9.69496C61.3037 8.55297 57.8226 9.13085 55.4836 11.1397C53.1308 13.1485 52.0302 16.4919 52.7044 19.5189L70.5359 28.5035L86.2899 67.0423C91.6009 72.9036 101.37 74.0319 107.864 69.5327C114.372 65.0335 116.752 55.4848 113.12 48.454C114.399 47.6009 115.514 46.5002 116.45 45.2756C119.944 43.6933 122.875 40.9003 124.196 37.2954C126.989 29.6455 121.939 20.1105 114.028 18.1292Z" fill="#263238"/>
<path d="M91.8348 87.6808C91.4358 81.6819 91.2568 81.2554 91.2706 81.2967C91.2706 81.2967 102.842 78.4348 104.08 62.956C104.699 55.251 103.337 42.8129 101.906 32.6725C100.613 23.5366 93.6509 12.7495 84.5838 14.4281L56.598 23.8668C53.8462 24.3759 53.062 26.7974 53.3371 29.5905L53.2134 30.9114L57.9601 74.6098L59.4324 87.7359C60.2992 96.0463 67.7565 104.494 76.1082 104.37C85.3267 104.247 92.4539 96.9131 91.8348 87.6808Z" fill="#9F7362"/>
<path d="M98.9757 46.6517C99.0995 47.6836 98.3153 48.633 97.2421 48.7843C96.1689 48.9219 95.2057 48.2064 95.0819 47.1745C94.9581 46.1426 95.7423 45.1932 96.8155 45.0419C97.8887 44.8905 98.8656 45.6197 98.9757 46.6517Z" fill="#263238"/>
<path d="M99.3335 40.9141C99.1134 41.1892 97.5449 40.1986 95.426 40.3775C93.3209 40.5151 91.8487 41.7258 91.601 41.4782C91.4772 41.3681 91.6973 40.8866 92.3303 40.35C92.9494 39.8134 94.0501 39.2492 95.3709 39.1529C96.6918 39.0566 97.8338 39.4556 98.508 39.8959C99.1822 40.35 99.4436 40.7902 99.3335 40.9141Z" fill="#263238"/>
<path d="M80.7863 47.7112C80.9101 48.7432 80.1259 49.6925 79.0527 49.8439C77.9795 49.9815 77.0163 49.266 76.8925 48.2341C76.7687 47.2022 77.5529 46.2528 78.6261 46.1014C79.6993 45.9501 80.6625 46.6793 80.7863 47.7112Z" fill="#263238"/>
<path d="M79.1354 42.0839C78.9152 42.359 77.333 41.3684 75.2279 41.5473C73.1227 41.6849 71.6505 42.8957 71.4028 42.648C71.279 42.5379 71.4854 42.0563 72.1321 41.5197C72.7512 40.9831 73.8519 40.419 75.1728 40.3227C76.4936 40.2264 77.6357 40.6254 78.3098 41.0657C78.9978 41.5197 79.2454 41.96 79.1354 42.0839Z" fill="#263238"/>
<path d="M87.8584 56.4343C87.8447 56.3104 89.138 55.9802 91.2431 55.5537C91.7797 55.4574 92.2751 55.306 92.3439 54.9346C92.4402 54.5355 92.1649 53.9714 91.8623 53.366C91.2569 52.1002 90.6102 50.7794 89.9497 49.3897C87.2805 43.721 85.2993 39.043 85.5332 38.9329C85.7671 38.8228 88.1061 43.3358 90.7753 49.0044C91.422 50.4079 92.0411 51.7425 92.619 53.0083C92.8666 53.5999 93.2794 54.2741 93.0593 55.0997C92.9492 55.5124 92.5777 55.8427 92.2338 55.9527C91.8898 56.0903 91.5871 56.1178 91.3256 56.1454C89.2068 56.4343 87.8722 56.5581 87.8584 56.4343Z" fill="#263238"/>
<path d="M91.2707 81.2968C91.2707 81.2968 81.034 82.769 70.357 77.4305C70.357 77.4305 76.3697 87.8185 91.5596 85.2043L91.2707 81.2968Z" fill="#65463C"/>
<path d="M78.7087 36.3601C78.4885 36.938 76.3834 36.6491 73.893 36.9242C71.4027 37.1582 69.3938 37.8599 69.0636 37.3508C68.9123 37.1031 69.2701 36.5665 70.0819 36.0162C70.8936 35.4658 72.1732 34.943 73.6729 34.7916C75.1589 34.6403 76.5348 34.8879 77.4291 35.2594C78.351 35.6309 78.805 36.0849 78.7087 36.3601Z" fill="#263238"/>
<path d="M98.9068 34.7505C98.5078 35.2596 96.7467 34.9018 94.6691 35.0394C92.5915 35.122 90.8716 35.6586 90.4314 35.1908C90.2387 34.9569 90.4726 34.4615 91.2019 33.9524C91.9173 33.4434 93.1556 32.9756 94.5728 32.893C96.0037 32.8242 97.2696 33.1544 98.0263 33.5947C98.8106 34.0212 99.0857 34.5028 98.9068 34.7505Z" fill="#263238"/>
<path d="M64.3444 14.8135C64.5645 17.8817 66.2019 20.8124 68.706 22.6011C71.1964 24.3897 74.5122 24.9951 77.4842 24.2246C79.7957 23.6192 82.2585 22.2433 84.3774 23.344C86.6064 24.486 86.9366 27.6919 88.9454 29.1916C91.821 31.3242 95.9487 28.8064 99.4435 29.5631C102.14 30.141 103.984 32.5488 105.91 34.5438C107.823 36.5389 110.616 38.3551 113.202 37.3782C112.858 35.0116 112.501 32.6313 111.62 30.4024C110.74 28.1872 109.267 26.1096 107.176 24.9538C106.034 24.3209 104.727 23.9907 103.64 23.2477C101.315 21.6379 100.572 18.5972 99.0307 16.2307C97.0357 13.1762 93.4997 11.1949 89.8535 11.0986C86.8266 11.016 83.7858 12.158 80.8001 11.6352C78.5849 11.2499 76.5899 9.98409 74.3609 9.73643C70.0269 9.2411 66.2706 12.612 63.4088 15.9142" fill="#263238"/>
<path d="M78.5025 19.8625C76.5487 19.4635 72.531 18.5142 71.3753 16.9319C68.8711 13.4921 64.7435 11.3182 60.7396 11.8411C56.7358 12.3639 53.1034 15.8312 52.6081 20.1515C47.7374 20.5505 43.2245 23.9765 41.2294 28.7508C39.2344 33.5252 39.8673 39.4828 42.798 43.7206C43.5685 44.835 44.6416 47.2979 44.6416 47.2979C44.6416 47.2979 42.5778 49.293 41.6973 50.7101C37.6384 57.2869 45.8524 61.0844 45.8524 61.0844C45.2608 65.7899 49.5949 66.3265 52.3879 66.6705C55.0572 67.0007 55.7452 74.6232 57.9466 74.6232L58.7171 51.4531C58.9648 51.5907 59.2949 51.7008 59.7077 51.7696C64.9361 52.5401 64.8535 42.4547 63.4914 39.6754C65.225 37.8868 66.9724 36.0706 68.2383 33.8554C69.5041 31.654 70.3159 25.8339 69.8206 23.2885C71.6643 23.2472 79.3693 20.0414 78.5025 19.8625Z" fill="#263238"/>
<path d="M59.3361 52.7608C58.9233 49.5137 55.2222 47.6149 52.5254 49.4586C51.0395 50.4768 49.9937 52.3618 50.3927 55.8015C51.4659 64.9925 60.4644 62.0068 60.4506 61.7454C60.4506 61.5803 59.8176 56.5582 59.3361 52.7608Z" fill="#9F7362"/>
<path d="M57.2447 58.5944C57.2034 58.5669 57.0933 58.732 56.8456 58.8833C56.598 59.0347 56.1577 59.1723 55.6486 59.0485C54.6304 58.8008 53.6398 57.3561 53.4059 55.705C53.2821 54.8657 53.3646 54.0539 53.5848 53.366C53.7911 52.6643 54.1627 52.1414 54.6442 51.9901C55.112 51.825 55.4973 52.0727 55.6349 52.3203C55.7863 52.568 55.745 52.7468 55.8 52.7606C55.8275 52.7744 55.9788 52.5817 55.855 52.2102C55.8 52.0314 55.6624 51.825 55.4285 51.6736C55.1808 51.5223 54.8506 51.4673 54.5204 51.5498C53.8186 51.6874 53.2546 52.4029 53.0207 53.1734C52.7455 53.9439 52.6354 54.8657 52.773 55.8013C53.0482 57.645 54.2039 59.2686 55.5798 59.4887C56.2403 59.585 56.7631 59.3236 57.0108 59.076C57.2585 58.8146 57.2722 58.6082 57.2447 58.5944Z" fill="#65463C"/>
<path d="M108.676 46.5277C108.635 46.4589 109.556 46.0049 110.877 44.7666C112.171 43.5283 113.822 41.3681 114.551 38.2173C114.909 36.6626 115.06 34.8739 114.716 33.0302C114.372 31.2003 113.588 29.2878 112.198 27.7055C109.488 24.5134 104.576 22.5734 99.8151 23.5778C99.3748 23.6603 98.9757 23.8117 98.5492 23.9218C98.1502 24.0731 97.765 24.252 97.3797 24.4033L96.7881 24.6372L96.8569 24.0318C96.9807 22.9586 96.7193 21.8717 96.1139 20.9774C95.5223 20.083 94.6968 19.3676 93.8024 18.8172C91.9725 17.7165 89.8811 17.4275 87.9273 17.6064C84.006 17.9779 80.5388 19.2988 77.4292 19.2575C74.3472 19.2575 71.9394 18.1705 70.7149 16.9735C70.082 16.3956 69.7518 15.804 69.5454 15.4187C69.3665 15.006 69.2977 14.7858 69.3114 14.7858C69.394 14.7308 69.6417 15.6939 70.8937 16.7809C72.1183 17.8678 74.4573 18.8172 77.4292 18.7622C78.9015 18.7346 80.525 18.4182 82.2449 18.0192C83.9785 17.6339 85.836 17.1386 87.8723 16.946C88.8905 16.8634 89.9499 16.8359 91.0369 17.0423C92.1101 17.2349 93.1695 17.6339 94.1602 18.198C95.1371 18.7759 96.0451 19.5602 96.7193 20.5646C97.3935 21.5552 97.7237 22.8486 97.5724 24.1006L97.0495 23.7291C97.4485 23.564 97.8614 23.3714 98.2879 23.2201C98.7282 23.0962 99.1684 22.9311 99.6362 22.8486C104.7 21.7754 109.845 23.853 112.68 27.2514C114.138 28.93 114.964 30.9664 115.294 32.9064C115.624 34.8464 115.432 36.7176 115.033 38.3136C114.207 41.5608 112.432 43.7484 111.056 44.9455C110.354 45.5509 109.763 45.9499 109.323 46.17C108.91 46.4314 108.69 46.5415 108.676 46.5277Z" fill="#455A64"/>
<path d="M110.919 15.0473C110.85 15.1436 110.065 14.2217 108.18 13.6989C107.259 13.4512 106.062 13.2999 104.741 13.5613C103.434 13.7952 101.989 14.4556 100.902 15.6527L100.503 16.0929L100.365 15.5151C99.6362 12.3918 96.7331 9.1309 92.743 8.15402C89.7435 7.41103 86.7991 8.41544 84.3363 9.44736C81.8459 10.5068 79.5618 11.5525 77.4842 11.9377C75.4204 12.378 73.673 12.2267 72.5448 11.8827C71.9807 11.7038 71.5679 11.5112 71.3065 11.3599C71.0451 11.1948 70.9075 11.1122 70.9213 11.0847C70.9488 11.0296 71.5129 11.3461 72.6274 11.6075C73.7281 11.8552 75.4067 11.924 77.388 11.4424C79.383 11.0159 81.5845 9.94268 84.0886 8.84197C85.3544 8.30537 86.7165 7.76878 88.2025 7.45232C89.6885 7.1221 91.3258 7.08082 92.9218 7.46607C97.2009 8.51175 100.255 12.0065 100.985 15.3775L100.448 15.2399C101.672 13.9328 103.255 13.2586 104.658 13.066C106.075 12.8321 107.327 13.0384 108.291 13.3549C109.254 13.6714 109.928 14.1254 110.354 14.4694C110.753 14.7996 110.946 15.0197 110.919 15.0473Z" fill="#455A64"/>
<path d="M86.5376 60.8923C85.9872 60.2044 85.0791 59.8879 84.1985 59.8741C83.373 59.8604 82.2723 60.452 81.6531 61.2776C81.6394 61.2913 81.6256 61.3051 81.6118 61.3188C81.5843 61.3601 81.5431 61.3876 81.5156 61.4289L81.5568 61.4152C81.3229 61.7041 81.1716 62.0618 81.1578 62.4196C81.1441 63.2451 81.6669 64.0156 82.3549 64.4696C83.4418 65.1989 85.0103 65.2401 86.0423 64.4146C87.0742 63.5891 87.3493 61.9242 86.5376 60.8923Z" fill="#65463C"/>
<path d="M81.0753 59.1719C81.1992 59.1444 81.378 59.6259 81.8321 60.2588C82.2861 60.8918 83.0566 61.676 84.1436 62.1026C85.2305 62.5153 86.3312 62.4741 87.088 62.2952C87.8585 62.1301 88.3125 61.8962 88.3813 62.0062C88.4364 62.0888 88.0786 62.5153 87.2531 62.8593C86.4551 63.2033 85.1342 63.3821 83.8271 62.8731C82.52 62.364 81.6807 61.3458 81.3092 60.5615C80.9515 59.7498 80.979 59.1857 81.0753 59.1719Z" fill="#263238"/>
<path d="M45.6873 33.7868C45.6735 33.8006 45.536 33.6905 45.2745 33.4841C45.0269 33.264 44.6554 32.9337 44.2426 32.4659C43.4171 31.5303 42.2751 29.9893 41.766 27.7466C41.5184 26.6321 41.4633 25.3388 41.7798 24.0179C42.0825 22.7108 42.7292 21.3487 43.8436 20.2617C44.9306 19.1748 46.5266 18.4593 48.219 18.5006C49.8838 18.5006 51.6862 19.1885 52.7732 20.6607L52.3467 20.8809C52.3329 20.8534 52.3191 20.8121 52.3191 20.7846C51.1909 17.4962 51.1909 13.9051 52.5805 11.1533C53.9289 8.40151 56.4743 6.68165 58.7859 6.42023C61.1111 6.15881 62.9273 7.05313 63.8905 7.86491C64.3858 8.26392 64.6884 8.67669 64.8811 8.95187C65.0599 9.24081 65.1425 9.39216 65.1287 9.40592C65.0874 9.4472 64.771 8.78677 63.7804 8.03002C62.8172 7.28704 61.0423 6.47526 58.8409 6.77795C56.6669 7.05313 54.2591 8.71797 52.9933 11.3735C51.6862 14.0014 51.6862 17.4549 52.787 20.647C52.8007 20.6745 52.8144 20.7158 52.8144 20.7433L53.2823 22.1742L52.3879 20.9772C51.411 19.6563 49.76 19.0097 48.219 19.0097C46.6505 18.9822 45.192 19.6151 44.1601 20.6195C43.1281 21.6101 42.4815 22.9035 42.1788 24.1418C41.8623 25.3938 41.9036 26.6184 42.11 27.7053C42.564 29.8792 43.6372 31.4065 44.4077 32.3696C45.1782 33.3052 45.7148 33.7593 45.6873 33.7868Z" fill="#263238"/>
<path d="M177.553 118.267L168.637 151.963C168.142 153.834 166.436 155.113 164.51 155.086L118.321 154.178C115.693 154.123 113.767 151.701 114.303 149.128L121.1 116.863C121.513 114.923 123.219 113.534 125.2 113.534H173.893C176.384 113.52 178.186 115.859 177.553 118.267Z" fill="#263238"/>
<path d="M181.433 125.876C182.451 124.761 182.355 122.904 181.461 121.693C180.553 120.482 179.012 119.877 177.498 119.822C175.985 119.767 174.499 120.193 173.095 120.744C171.348 121.404 169.669 122.243 168.101 123.234C166.986 123.936 165.831 124.844 165.61 126.151C165.39 127.444 166.807 128.93 167.949 128.284C166.463 128.916 164.964 130.485 164.716 132.122C164.482 133.773 165.363 134.654 166.945 135.122C165.734 135.59 164.964 137.117 165.514 138.286C166.092 139.525 167.798 139.855 169.078 139.373C170.357 138.892 171.293 137.805 172.187 136.773C171.279 138.328 170.963 140.226 171.307 141.987C174.815 140.79 177.526 137.475 177.98 133.787C179.7 132.494 180.277 129.88 179.259 127.981C180.676 127.541 182.286 125.38 182.176 123.894" fill="#9F7362"/>
<path d="M166.973 135.135C167.014 135.176 167.564 134.695 168.5 133.966C169.422 133.264 170.77 132.287 172.504 131.916C173.357 131.737 174.21 131.737 174.939 131.916C175.668 132.094 176.274 132.438 176.714 132.81C177.608 133.553 177.801 134.31 177.87 134.268C177.883 134.268 177.87 134.076 177.732 133.759C177.594 133.443 177.333 133.016 176.893 132.604C176.439 132.191 175.806 131.792 175.021 131.572C174.237 131.351 173.315 131.338 172.407 131.53C170.577 131.929 169.201 132.989 168.307 133.746C167.427 134.544 166.945 135.094 166.973 135.135Z" fill="#65463C"/>
<path d="M167.358 128.435C167.385 128.49 168.101 128.201 169.201 127.664C169.752 127.403 170.412 127.073 171.169 126.811C171.912 126.55 172.793 126.316 173.701 126.151C174.609 126 175.489 125.972 176.274 126.123C177.044 126.275 177.704 126.591 178.172 126.949C179.149 127.678 179.355 128.462 179.411 128.435C179.424 128.435 179.411 128.228 179.259 127.912C179.108 127.596 178.819 127.155 178.337 126.743C177.856 126.33 177.168 125.958 176.342 125.779C175.517 125.601 174.581 125.614 173.632 125.766C172.682 125.931 171.829 126.178 171.045 126.467C170.275 126.77 169.614 127.114 169.078 127.417C168.004 128.022 167.344 128.38 167.358 128.435Z" fill="#65463C"/>
<path d="M147.173 129.811L146.912 129.769C145.756 129.659 144.587 130.581 144.449 131.737C144.298 132.893 145.206 134.076 146.348 134.255C147.49 134.434 148.714 133.567 148.921 132.425C149.141 131.283 148.315 130.058 147.173 129.811Z" fill="white"/>
<path d="M102.306 118.226C102.306 118.226 107.204 108.663 108.648 109.227C110.093 109.791 111.992 109.819 111.07 113.437C110.148 117.056 107.74 119.533 107.878 122.381C108.015 125.215 110.244 131.585 107.768 134.544C105.305 137.502 101.122 146.431 101.122 146.431L90.2664 135.369L92.688 131.806C92.688 131.806 88.6153 126.164 87.8311 122.89C87.033 119.615 88.23 114.978 88.23 114.978C88.23 114.978 87.9412 112.24 89.4134 110.149C89.4134 110.149 89.1519 107.989 89.1932 105.774C89.2482 103.558 94.9444 94.4363 94.9444 94.4363C94.9444 94.4363 97.8476 95.5508 96.8845 98.6052C95.9351 101.646 94.6418 104.246 94.6418 104.246L101.301 101.701C101.301 101.701 103.035 104.934 99.4986 106.847C95.9626 108.759 95.4123 110.369 95.4123 110.369L100.489 110.754C100.489 110.754 100.957 113.575 98.9208 114.153C96.8844 114.731 96.8845 114.731 96.8845 114.731L102.306 118.226Z" fill="#9F7362"/>
<path d="M99.3471 113.974C98.4115 114.18 97.0906 114.455 94.7791 114.965L94.7104 114.978L94.6828 115.047C94.1737 116.134 93.6785 117.524 93.7885 119.106C93.8986 120.688 94.6691 122.326 95.8936 123.619C97.2833 125.009 98.9894 125.765 100.434 126.522C101.879 127.265 103.131 128.077 103.915 129.012C104.713 129.934 105.071 130.897 105.181 131.558C105.305 132.232 105.222 132.617 105.263 132.617C105.277 132.617 105.305 132.521 105.332 132.342C105.36 132.163 105.374 131.888 105.332 131.53C105.264 130.829 104.933 129.81 104.122 128.82C103.324 127.815 102.058 126.962 100.599 126.178C99.1545 125.394 97.4897 124.637 96.1826 123.316C95.0268 122.092 94.2701 120.537 94.16 119.051C94.0362 117.565 94.4764 116.217 94.958 115.143L94.8617 115.226C97.641 114.579 99.3746 114.07 99.3471 113.974Z" fill="#65463C"/>
<path d="M89.3307 114.579C89.3995 114.593 89.4957 114.139 89.7984 113.506C90.1011 112.873 90.7203 112.089 91.6696 111.566C92.6052 111.03 93.5822 110.796 94.2839 110.644C94.9856 110.493 95.4397 110.424 95.4397 110.355C95.4397 110.3 94.9856 110.273 94.2426 110.355C93.5134 110.452 92.4815 110.644 91.4633 111.208C90.968 111.497 90.5276 111.855 90.2112 112.24C89.881 112.626 89.6746 113.038 89.537 113.382C89.2893 114.112 89.2894 114.579 89.3307 114.579Z" fill="#65463C"/>
<path d="M89.9086 108.952C90.0187 109.007 90.7755 107.728 92.0688 106.476C93.3484 105.196 94.6417 104.467 94.5867 104.357C94.5454 104.261 93.1282 104.866 91.7798 106.187C90.4452 107.494 89.8261 108.911 89.9086 108.952Z" fill="#65463C"/>
</svg>
